<?xml version="1.0" standalone="no"?>
<!DOCTYPE svg PUBLIC "-//W3C//DTD SVG 20010904//EN"
 "http://www.w3.org/TR/2001/REC-SVG-20010904/DTD/svg10.dtd">
<svg version="1.0" xmlns="http://www.w3.org/2000/svg"
 width="1051.000000pt" height="1051.000000pt" viewBox="0 0 1051.000000 1051.000000"
 preserveAspectRatio="xMidYMid meet">
<metadata>
Created by potrace 1.14, written by Peter Selinger 2001-2017
</metadata>
<g transform="translate(0.000000,1051.000000) scale(0.100000,-0.100000)"
fill="#000000" stroke="none">
<path d="M5188 9575 c-1 -2 -25 -5 -53 -8 -140 -13 -233 -53 -540 -232 -121
-70 -236 -136 -255 -147 -19 -11 -48 -27 -65 -37 -40 -24 -359 -209 -410 -237
-22 -13 -51 -29 -65 -37 -14 -8 -81 -47 -150 -87 -140 -81 -123 -71 -355 -205
-93 -54 -330 -190 -525 -303 -512 -296 -522 -302 -529 -302 -4 0 -13 -6 -19
-12 -7 -7 -42 -29 -77 -48 -85 -47 -448 -256 -505 -291 -25 -15 -63 -37 -85
-49 -39 -21 -334 -192 -365 -211 -8 -5 -182 -105 -386 -222 -409 -236 -437
-253 -509 -324 -154 -148 -237 -304 -275 -515 -9 -47 -12 -720 -12 -2653 0
-1424 3 -2606 6 -2625 11 -64 18 -90 22 -90 2 0 34 14 71 31 38 17 228 103
423 191 195 88 373 168 395 178 22 10 227 102 455 205 502 226 571 257 678
306 46 22 86 39 88 39 3 0 41 17 87 38 45 21 152 70 237 107 85 38 157 70 159
72 2 1 4 477 5 1058 1 931 -1 1055 -14 1056 -8 1 -204 2 -435 3 l-420 1 -3
206 -2 207 142 83 c79 45 179 103 223 129 44 26 192 112 330 191 137 79 257
149 266 154 9 6 38 22 65 36 27 15 85 48 129 74 44 27 105 62 135 78 30 17 67
38 82 49 14 10 28 18 31 18 2 0 56 30 118 66 63 37 130 76 149 86 19 11 40 24
45 28 6 4 30 18 55 32 54 30 316 181 805 463 465 269 587 339 771 445 l152 87
48 -27 c45 -25 383 -220 794 -458 91 -52 180 -103 198 -114 17 -10 47 -27 66
-37 19 -11 53 -31 75 -45 22 -15 43 -26 45 -26 2 0 42 -22 89 -50 47 -27 89
-50 94 -50 4 0 8 82 8 182 l0 183 605 0 605 0 0 -537 0 -537 35 -19 c19 -11
91 -52 160 -92 69 -40 139 -80 155 -90 176 -100 493 -284 503 -292 9 -8 12
-64 12 -217 l0 -206 -435 0 c-431 1 -435 1 -436 -20 -1 -26 -1 -2077 0 -2090
1 -5 22 -19 49 -29 26 -11 79 -34 117 -52 39 -17 135 -61 215 -97 171 -77 432
-194 510 -230 30 -14 147 -66 260 -117 113 -50 228 -102 255 -115 112 -52
1187 -535 1191 -535 4 0 13 48 20 105 12 104 8 5193 -4 5255 -6 30 -14 66 -16
79 -11 52 -44 140 -69 186 -6 11 -21 40 -34 66 -13 25 -35 57 -48 72 -14 14
-25 30 -25 35 0 13 -99 111 -155 152 -27 20 -174 108 -325 195 -151 87 -367
212 -478 277 -112 65 -205 118 -208 118 -3 0 -135 77 -184 109 -14 8 -28 14
-32 13 -5 -1 -8 3 -8 8 0 6 -4 10 -9 10 -4 0 -48 23 -97 51 -49 29 -156 91
-237 138 -210 121 -217 125 -267 154 -25 14 -202 116 -395 227 -192 112 -363
210 -380 220 -16 9 -89 51 -162 93 -72 42 -149 86 -170 98 -21 12 -42 25 -48
29 -5 4 -35 21 -65 37 -30 17 -127 72 -215 123 -88 51 -180 104 -205 118 -25
13 -49 28 -55 32 -5 4 -27 17 -48 29 -21 12 -98 56 -170 98 -158 91 -173 100
-257 147 -36 21 -72 41 -80 46 -27 16 -174 102 -210 122 -19 11 -64 37 -100
58 -102 59 -228 107 -330 125 -40 7 -216 15 -222 10z"/>
<path d="M5040 6279 c-250 -142 -424 -241 -475 -269 -22 -12 -74 -42 -115 -65
-41 -23 -91 -51 -110 -62 -19 -11 -123 -69 -230 -130 -107 -60 -215 -121 -240
-135 -25 -14 -155 -87 -290 -163 -267 -152 -409 -232 -540 -305 -151 -85 -289
-163 -620 -350 -179 -101 -346 -195 -372 -209 -26 -13 -45 -27 -43 -30 3 -3
63 -6 133 -7 123 -1 129 0 187 30 33 17 62 33 65 36 3 3 21 13 40 24 116 62
166 89 175 96 6 4 31 19 58 34 102 57 146 81 257 144 63 36 135 76 160 90 25
14 146 82 270 152 330 187 862 486 906 510 22 12 46 25 54 31 26 16 423 239
426 239 2 0 25 13 52 29 26 15 68 39 93 53 24 14 62 35 84 48 156 89 268 150
275 150 4 0 123 -66 266 -146 142 -80 282 -159 309 -174 135 -74 231 -129 480
-269 149 -84 295 -167 325 -184 74 -41 92 -51 265 -149 83 -47 170 -96 195
-110 47 -26 56 -32 235 -133 61 -34 133 -74 160 -90 28 -15 84 -47 125 -70 41
-23 143 -81 227 -129 84 -47 157 -86 163 -86 5 0 10 -4 10 -10 0 -5 4 -10 10
-10 5 0 49 -23 97 -51 l88 -52 148 -1 c81 -1 147 -1 147 0 0 2 -44 27 -97 57
-54 29 -120 66 -148 82 -49 28 -80 45 -160 90 -22 13 -84 48 -139 79 -54 31
-100 56 -102 56 -2 0 -33 18 -69 40 -36 22 -67 40 -69 40 -2 0 -79 43 -172 96
-93 53 -194 110 -224 127 -68 37 -400 224 -420 237 -8 5 -31 18 -50 28 -19 11
-192 108 -385 217 -192 109 -370 209 -395 223 -25 14 -94 53 -155 87 -60 35
-128 73 -150 85 -22 12 -143 81 -268 152 -125 71 -233 131 -240 133 -7 2 -100
-45 -207 -106z"/>
<path d="M4573 3848 l2 -293 291 -1 291 -1 -1 291 -1 291 -292 3 -292 2 2
-292z"/>
<path d="M5325 4128 c-2 -7 -3 -139 -2 -293 l2 -280 290 0 290 0 2 293 1 292
-289 0 c-223 0 -291 -3 -294 -12z"/>
<path d="M4570 3180 l0 -300 295 0 295 0 0 300 0 300 -295 0 -295 0 0 -300z"/>
<path d="M5325 3470 c-1 -3 -2 -135 -1 -294 l1 -289 265 1 c146 0 277 1 292 1
l27 1 0 290 c-1 209 -4 290 -13 291 -54 4 -569 3 -571 -1z"/>
</g>
</svg>
