<svg xmlns="http://www.w3.org/2000/svg" width="69.919" height="68.944" viewBox="0 0 69.919 68.944">
  <g id="authentication" transform="translate(0)">
    <path id="Path_1" data-name="Path 1" d="M54.618,32.118c0-.124.006-18.463.006-18.463L27.312,0,0,13.656v18.09A33.819,33.819,0,0,0,15.082,59.931l12.23,8.15,9.422-6.276A18.557,18.557,0,1,0,54.618,32.117ZM27.312,65.46,16.294,58.116a31.635,31.635,0,0,1-14.11-26.37V15.006L27.312,2.442,52.439,15.006V31.866c-.363-.022-.722-.055-1.092-.055s-.731.034-1.092.055V16.353L27.312,4.883,4.37,16.354V31.745A29.463,29.463,0,0,0,17.507,56.3l9.805,6.533,7.147-4.762a18.513,18.513,0,0,0,1.033,1.941Zm6.33-9.473L27.312,60.2,18.72,54.478c-.424-.283-.835-.58-1.24-.885V43.828H15.295V51.76a27.291,27.291,0,0,1-3.277-3.638V41.773A3.278,3.278,0,0,1,14.5,38.6l7.409-1.857a5.456,5.456,0,0,0,4.314,4.8v4.479H28.4V41.534a5.454,5.454,0,0,0,4.313-4.8l4.863,1.222a18.478,18.478,0,0,0-3.939,18.026ZM21.85,23.071h3.02a11.508,11.508,0,0,0,4.878-1.092h.3l2.731,3.641v4.552L29.133,32.9H25.491L21.85,30.172Zm-2.094-2.185a4.274,4.274,0,0,1,2.34-3.157,11.032,11.032,0,0,1,7.671-.483l.251.363h1.664A1.093,1.093,0,0,1,32.775,18.7v3.277l-1.639-2.185h-1.9l-.23.115a9.316,9.316,0,0,1-4.14.978ZM30.59,34.542v1.639a3.277,3.277,0,0,1-6.555,0V34.542l.729.546h5.1Zm2.185-.043V32.9l2.185-1.639V18.7a3.277,3.277,0,0,0-3.277-3.277h-.727c-1.581-.961-5.516-1.155-8.3-.283a6.8,6.8,0,0,0-5.173,6.838v1.092h2.185v8.194L21.85,32.9v1.591l-7.885,1.983a5.453,5.453,0,0,0-4.132,5.3v2.95A27.283,27.283,0,0,1,6.555,31.745V17.7L27.312,7.326,48.069,17.7V31.745c0,.125-.007.25-.009.374a18.486,18.486,0,0,0-8.644,4.049ZM51.347,66.771A16.387,16.387,0,1,1,67.734,50.383,16.387,16.387,0,0,1,51.347,66.771Zm0,0" fill="#7dc242"/>
    <path id="Path_2" data-name="Path 2" d="M416,136.945h13.11v2.185H416Zm0,0" transform="translate(-359.191 -118.244)" fill="#7dc242"/>
    <path id="Path_3" data-name="Path 3" d="M416,168.945h8.74v2.185H416Zm0,0" transform="translate(-359.191 -145.874)" fill="#7dc242"/>
    <path id="Path_4" data-name="Path 4" d="M416,200.945h4.37v2.185H416Zm0,0" transform="translate(-359.191 -173.504)" fill="#7dc242"/>
    <path id="Path_5" data-name="Path 5" d="M283.05,294.912l-3.862-3.862-6.18,6.179,10.042,10.042,16.995-16.995-6.18-6.179Zm0,9.27L276.1,297.23l3.091-3.09L283.05,298l10.816-10.816,3.091,3.09Zm0,0" transform="translate(-235.726 -245.301)" fill="#7dc242"/>
  </g>
</svg>
