<svg xmlns="http://www.w3.org/2000/svg" width="58.598" height="58.598" viewBox="0 0 58.598 58.598">
  <g id="eco-light_1_" data-name="eco-light (1)" transform="translate(0 0)">
    <path id="Path_6" data-name="Path 6" d="M114.673,34.093a20.143,20.143,0,1,0-29.08-.02,12.909,12.909,0,0,1,3.485,7.478A3.2,3.2,0,0,0,88.29,46.7a3.205,3.205,0,0,0,1.939,5.479A8.38,8.38,0,0,0,98.377,58.6h3.532a8.38,8.38,0,0,0,8.148-6.424A3.205,3.205,0,0,0,112,46.7a3.2,3.2,0,0,0-.788-5.145,12.843,12.843,0,0,1,3.465-7.458ZM86.916,32.806a18.312,18.312,0,1,1,26.437.018,14.67,14.67,0,0,0-3.946,8.377h-8.348V31.13h2.747a10.083,10.083,0,0,0,10.071-10.071V18.312a.916.916,0,0,0-.916-.916H109.3a10.085,10.085,0,0,0-9.156,5.878A10.085,10.085,0,0,0,90.987,17.4H87.325a.916.916,0,0,0-.916.916v2.747A10.083,10.083,0,0,0,96.481,31.13h2.747V41.2H90.88A14.741,14.741,0,0,0,86.916,32.806Zm21.241-9.6a.915.915,0,0,0-1.292-.086l-5.806,5.08v-.729a8.25,8.25,0,0,1,8.24-8.24h2.747v1.831a8.25,8.25,0,0,1-8.24,8.24H102.58l5.491-4.8A.916.916,0,0,0,108.157,23.2ZM99.227,28.2l-5.806-5.08a.916.916,0,1,0-1.206,1.378l5.491,4.8H96.481a8.25,8.25,0,0,1-8.24-8.24V19.228h2.747a8.25,8.25,0,0,1,8.24,8.24Zm2.682,28.57H98.377a6.589,6.589,0,0,1-6.245-4.578h16.021A6.589,6.589,0,0,1,101.909,56.767Zm9.221-7.783a1.375,1.375,0,0,1-1.373,1.373H90.529a1.373,1.373,0,1,1,0-2.747h19.227A1.375,1.375,0,0,1,111.13,48.984Zm-20.6-3.2a1.373,1.373,0,1,1,0-2.747h19.227a1.373,1.373,0,0,1,0,2.747Z" transform="translate(-70.844 0)" fill="#7dc242"/>
    <path id="Path_7" data-name="Path 7" d="M6.409,168.916A.916.916,0,0,0,5.494,168H.916a.916.916,0,0,0,0,1.831H5.494A.916.916,0,0,0,6.409,168.916Z" transform="translate(0 -148.772)" fill="#7dc242"/>
    <path id="Path_8" data-name="Path 8" d="M37.647,272.122l-3.965,2.289A.916.916,0,1,0,34.6,276l3.965-2.289a.916.916,0,0,0-.916-1.586Z" transform="translate(-29.422 -240.869)" fill="#7dc242"/>
    <path id="Path_9" data-name="Path 9" d="M33.682,45.707c4.244,2.45,4.075,2.412,4.422,2.412a.917.917,0,0,0,.459-1.709L34.6,44.121a.916.916,0,0,0-.916,1.586Z" transform="translate(-29.422 -38.962)" fill="#7dc242"/>
    <path id="Path_10" data-name="Path 10" d="M461.494,168h-4.578a.916.916,0,1,0,0,1.831h4.578a.916.916,0,1,0,0-1.831Z" transform="translate(-403.811 -148.772)" fill="#7dc242"/>
    <path id="Path_11" data-name="Path 11" d="M433.469,274.409,429.5,272.12a.916.916,0,1,0-.916,1.586l3.965,2.289a.916.916,0,1,0,.916-1.586Z" transform="translate(-379.131 -240.867)" fill="#7dc242"/>
    <path id="Path_12" data-name="Path 12" d="M429.053,48.118c.349,0,.183.035,4.422-2.412a.916.916,0,1,0-.916-1.586l-3.965,2.289A.916.916,0,0,0,429.053,48.118Z" transform="translate(-379.137 -38.962)" fill="#7dc242"/>
  </g>
</svg>
