<svg xmlns="http://www.w3.org/2000/svg" width="65.919" height="56.732" viewBox="0 0 65.919 56.732">
  <g id="shining" transform="translate(0 -35.678)">
    <g id="Group_23" data-name="Group 23" transform="translate(11.155 70.405)">
      <g id="Group_22" data-name="Group 22">
        <path id="Path_13" data-name="Path 13" d="M107.8,315.365c-.526-.109-2.994.316-5.345-.951a.966.966,0,1,0-.917,1.7q.3.162.6.3a8.442,8.442,0,0,0-4.492,4.737,8.566,8.566,0,0,0-4.494-4.739,8.573,8.573,0,0,0,4.494-4.739c.185.456.354.773.36.786a.966.966,0,1,0,1.72-.878,10.352,10.352,0,0,1-1.034-4.987,1.05,1.05,0,0,0-.863-1.166,1.064,1.064,0,0,0-1.225.808c-.069.3.431,5.517-3.354,7.936-2.464,1.572-5.261,1.083-5.782,1.2a1.065,1.065,0,0,0,0,2.076c.515.116,3.367-.371,5.831,1.233,3.66,2.385,3.256,7.461,3.281,7.689a1.063,1.063,0,0,0,2.077.3c.127-.4-.407-5.431,3.206-7.905,2.381-1.632,5.332-1.238,5.845-1.3A1.064,1.064,0,0,0,107.8,315.365Z" transform="translate(-86.643 -305.405)" fill="#7dc242"/>
      </g>
    </g>
    <g id="Group_25" data-name="Group 25" transform="translate(17.201 38.345)">
      <g id="Group_24" data-name="Group 24">
        <path id="Path_14" data-name="Path 14" d="M181.286,79.576c-1.766-.2-14.351,1.572-19.851-9.976-2.891-6.074-2.15-11.581-2.307-12.272a1.193,1.193,0,0,0-2.356.215v2.506c-.436,8.615-4.357,15.948-12.589,18.53-4.754,1.491-8.881.847-9.652,1.016a1.2,1.2,0,0,0,.013,2.335c1.077.227,9.183-1.086,15.478,4.142a.966.966,0,0,0,1.234-1.486,19.277,19.277,0,0,0-7.711-3.82c7.8-1.964,12.585-7.531,14.418-15.329,1.817,7.75,6.564,13.366,14.447,15.321-7.8,1.953-12.657,7.515-14.458,15.291a22.782,22.782,0,0,0-3.471-7.961A.966.966,0,1,0,152.9,89.2a18.6,18.6,0,0,1,1.586,2.72,27.059,27.059,0,0,1,2.286,12.125,1.194,1.194,0,1,0,2.373-.267c-.132-3.2.116-14.05,8.878-19.2,5.913-3.47,12.49-2.456,13.368-2.654A1.2,1.2,0,0,0,181.286,79.576Z" transform="translate(-133.602 -56.398)" fill="#7dc242"/>
      </g>
    </g>
    <g id="Group_27" data-name="Group 27" transform="translate(0 35.678)">
      <g id="Group_26" data-name="Group 26" transform="translate(0 0)">
        <path id="Path_15" data-name="Path 15" d="M21.155,45.638c-.654-.136-5.809.777-8.112-3.869a10.905,10.905,0,0,1-.993-4.907,1.05,1.05,0,0,0-.864-1.166,1.063,1.063,0,0,0-1.224.81c-.069.3.43,5.515-3.354,7.935C4.23,45.958,1.455,45.566.932,45.624a1.065,1.065,0,0,0-.107,2.094c.562.126,3.353-.38,5.831,1.233,2.641,1.721,3.19,4.881,3.281,6.628a5.569,5.569,0,0,0,.047,1.358,1.064,1.064,0,0,0,2.062-.127,11.805,11.805,0,0,1,1.024-5.272.966.966,0,1,0-1.725-.868q-.183.364-.34.754a8.567,8.567,0,0,0-4.5-4.743A8.574,8.574,0,0,0,11,41.941a8.479,8.479,0,0,0,4.491,4.742q-.316.14-.631.309a.966.966,0,0,0,.919,1.7,10.74,10.74,0,0,1,5.284-.955A1.065,1.065,0,0,0,21.155,45.638Z" transform="translate(0 -35.678)" fill="#7dc242"/>
      </g>
    </g>
  </g>
</svg>
