<svg id="g11120" xmlns="http://www.w3.org/2000/svg" xmlns:xlink="http://www.w3.org/1999/xlink" width="51.507" height="51.507" viewBox="0 0 51.507 51.507">
  <defs>
    <clipPath id="clip-path">
      <path id="path11124" d="M0-682.665H51.507v51.507H0Z" transform="translate(0 682.665)"/>
    </clipPath>
  </defs>
  <g id="g11122" clip-path="url(#clip-path)">
    <g id="g11128" transform="translate(20.093 22.479)">
      <path id="path11130" d="M-241.171,0a14.453,14.453,0,0,1,.374,3.274,14.394,14.394,0,0,1-14.395,14.395,14.354,14.354,0,0,1-5.661-1.155" transform="translate(260.853)" fill="none" stroke="#7dc242" stroke-linecap="round" stroke-linejoin="round" stroke-miterlimit="10" stroke-width="2"/>
    </g>
    <g id="g11132" transform="translate(11.359 11.359)">
      <path id="path11134" d="M-4.586-216.517a14.452,14.452,0,0,1-.374-3.274A14.394,14.394,0,0,1,9.435-234.186a14.354,14.354,0,0,1,5.661,1.155" transform="translate(4.96 234.186)" fill="none" stroke="#7dc242" stroke-linecap="round" stroke-linejoin="round" stroke-miterlimit="10" stroke-width="2"/>
    </g>
    <g id="g11136" transform="translate(0.754 0.754)">
      <path id="path11138" d="M-186.919-510.585a19.212,19.212,0,0,0,9.745,2.637,19.221,19.221,0,0,0,12.231-4.368m5.878-21.641a19.257,19.257,0,0,1,1.2,6.7,19.232,19.232,0,0,1-4.567,12.471m-12.979-31.7a19.171,19.171,0,0,1,7.987,2.557m-27.854,23.373h0a19.256,19.256,0,0,1-1.2-6.7,19.3,19.3,0,0,1,17.546-19.225m-20.856,29.712a1.984,1.984,0,0,1-.816-1.6,1.946,1.946,0,0,1,.367-1.135,1.955,1.955,0,0,0,.365-1.137,1.964,1.964,0,0,0-1.15-1.792,1.957,1.957,0,0,1-1.149-1.794,1.943,1.943,0,0,1,.714-1.511,1.956,1.956,0,0,0,.714-1.516,1.957,1.957,0,0,0-.714-1.516,1.943,1.943,0,0,1-.714-1.511,1.957,1.957,0,0,1,1.149-1.794,1.966,1.966,0,0,0,.786-2.929,1.946,1.946,0,0,1-.367-1.135,1.966,1.966,0,0,1,1.642-1.944,1.967,1.967,0,0,0,1.641-1.938,1.956,1.956,0,0,0-.125-.688,1.967,1.967,0,0,1,2.029-2.645,1.966,1.966,0,0,0,2.152-1.952c0-.063,0-.127-.009-.191a1.97,1.97,0,0,1,1.953-2.156,1.974,1.974,0,0,1,.692.127,1.956,1.956,0,0,0,.688.125A1.967,1.967,0,0,0-188-549.042a1.966,1.966,0,0,1,1.944-1.642,1.946,1.946,0,0,1,1.135.367,1.954,1.954,0,0,0,1.137.365,1.964,1.964,0,0,0,1.792-1.15,1.967,1.967,0,0,1,3.3-.435,1.965,1.965,0,0,0,3.032,0,1.943,1.943,0,0,1,1.511-.714,1.957,1.957,0,0,1,1.794,1.149,1.964,1.964,0,0,0,1.792,1.15,1.954,1.954,0,0,0,1.137-.365,1.946,1.946,0,0,1,1.135-.367,1.966,1.966,0,0,1,1.944,1.642,1.967,1.967,0,0,0,1.938,1.641,1.955,1.955,0,0,0,.688-.125,1.957,1.957,0,0,1,.737-.126m8.423,9.912A1.968,1.968,0,0,1-154.11-535a1.954,1.954,0,0,0-.365,1.137,1.964,1.964,0,0,0,1.15,1.792,1.957,1.957,0,0,1,1.149,1.794,1.943,1.943,0,0,1-.714,1.511,1.965,1.965,0,0,0,0,3.032,1.943,1.943,0,0,1,.714,1.511,1.957,1.957,0,0,1-1.149,1.794,1.964,1.964,0,0,0-1.15,1.792,1.955,1.955,0,0,0,.365,1.137,1.946,1.946,0,0,1,.367,1.135,1.966,1.966,0,0,1-1.642,1.944,1.967,1.967,0,0,0-1.641,1.938,1.957,1.957,0,0,0,.125.688,1.966,1.966,0,0,1-2.029,2.645,1.966,1.966,0,0,0-2.152,1.952c0,.063,0,.127.009.191a1.97,1.97,0,0,1-1.953,2.156,1.975,1.975,0,0,1-.692-.127,1.956,1.956,0,0,0-.688-.125,1.967,1.967,0,0,0-1.938,1.641,1.966,1.966,0,0,1-1.944,1.642,1.946,1.946,0,0,1-1.135-.367,1.955,1.955,0,0,0-1.137-.365,1.964,1.964,0,0,0-1.792,1.15,1.957,1.957,0,0,1-1.794,1.149,1.943,1.943,0,0,1-1.511-.714,1.957,1.957,0,0,0-1.516-.714,1.957,1.957,0,0,0-1.516.714,1.943,1.943,0,0,1-1.511.714,1.957,1.957,0,0,1-1.794-1.149,1.964,1.964,0,0,0-1.792-1.15,1.955,1.955,0,0,0-1.137.365,1.946,1.946,0,0,1-1.135.367A1.966,1.966,0,0,1-188-505.464a1.967,1.967,0,0,0-1.938-1.641,1.957,1.957,0,0,0-.688.125,1.951,1.951,0,0,1-.737.126" transform="translate(202.173 552.252)" fill="none" stroke="#7dc242" stroke-linecap="round" stroke-linejoin="round" stroke-miterlimit="10" stroke-width="2"/>
    </g>
    <g id="g11140" transform="translate(6.095 36.268)">
      <path id="path11142" d="M-70.375-14.235a3.252,3.252,0,0,1-.4,4.581,3.252,3.252,0,0,1-4.581-.4,3.252,3.252,0,0,1,.4-4.581A3.252,3.252,0,0,1-70.375-14.235Z" transform="translate(76.118 15.397)" fill="none" stroke="#7dc242" stroke-linecap="round" stroke-linejoin="round" stroke-miterlimit="10" stroke-width="2"/>
    </g>
    <g id="g11144" transform="translate(14.87 35.079)">
      <path id="path11146" d="M0,0,4.088.622" fill="none" stroke="#7dc242" stroke-linecap="round" stroke-linejoin="round" stroke-miterlimit="10" stroke-width="2"/>
    </g>
    <g id="g11148" transform="translate(14.261 35.574)">
      <path id="path11150" d="M0,0,2,2.387" fill="none" stroke="#7dc242" stroke-linecap="round" stroke-linejoin="round" stroke-miterlimit="10" stroke-width="2"/>
    </g>
    <g id="g11152" transform="translate(12.085 31.436)">
      <path id="path11154" d="M-46.3-7.078a1.752,1.752,0,0,1-.282,2.443c-.368.308-1.321,1.118-1.321,1.118l-2.176-2.6,1.324-1.111A1.752,1.752,0,0,1-46.3-7.078Z" transform="translate(50.08 7.655)" fill="none" stroke="#7dc242" stroke-linecap="round" stroke-linejoin="round" stroke-miterlimit="10" stroke-width="2"/>
    </g>
    <g id="g11156" transform="translate(36.469 12.437)">
      <path id="path11158" d="M-27.672-81.79l-2.251-6.482a.147.147,0,0,1,.209-.176l5.976,3.357" transform="translate(29.931 88.465)" fill="none" stroke="#7dc242" stroke-linecap="round" stroke-linejoin="round" stroke-miterlimit="10" stroke-width="2"/>
    </g>
    <g id="g11160" transform="translate(38.284 15.07)">
      <path id="path11162" d="M0-28.544l2.776-2.329" transform="translate(0 30.873)" fill="none" stroke="#7dc242" stroke-linecap="round" stroke-linejoin="round" stroke-miterlimit="10" stroke-width="2"/>
    </g>
    <g id="g11164" transform="translate(20.777 23.966)">
      <path id="path11166" d="M-35.677,0a3.237,3.237,0,0,0-1.75.743,3.252,3.252,0,0,0-.4,4.581,3.252,3.252,0,0,0,4.581.4c1.376-1.154,1.215-2.92.06-4.3l-1.49,1.251" transform="translate(38.588)" fill="none" stroke="#7dc242" stroke-linecap="round" stroke-linejoin="round" stroke-miterlimit="10" stroke-width="2"/>
    </g>
    <g id="g11168" transform="translate(28.76 16.089)">
      <path id="path11170" d="M-42.29,0l4.18,4.982L-45.741,2.9l4.181,4.982" transform="translate(45.741)" fill="none" stroke="#7dc242" stroke-linecap="round" stroke-linejoin="round" stroke-miterlimit="10" stroke-width="2"/>
    </g>
    <g id="g11172" transform="translate(17.113 28.759)">
      <path id="path11174" d="M0,0,4.18,4.982" fill="none" stroke="#7dc242" stroke-linecap="round" stroke-linejoin="round" stroke-miterlimit="10" stroke-width="2"/>
    </g>
    <g id="g11176" transform="translate(26.425 20.945)">
      <path id="path11178" d="M0,0,4.18,4.982" fill="none" stroke="#7dc242" stroke-linecap="round" stroke-linejoin="round" stroke-miterlimit="10" stroke-width="2"/>
    </g>
    <g id="g11180" transform="translate(40.816 8.87)">
      <path id="path11182" d="M0,0,4.177,4.978c.063-.037,1.745-1.464,1.745-1.464" fill="none" stroke="#7dc242" stroke-linecap="round" stroke-linejoin="round" stroke-miterlimit="10" stroke-width="2"/>
    </g>
    <g id="g11184" transform="translate(1.015 3.655)">
      <path id="path11186" d="M-206.072-248.207l23.572-19.78a2.032,2.032,0,0,1,2.863.25l5.748,6.851a2.032,2.032,0,0,1-.25,2.863L-213.8-224.741a2.032,2.032,0,0,1-2.863-.25l-5.748-6.851a2.032,2.032,0,0,1,.251-2.863l13.393-11.238" transform="translate(222.889 268.462)" fill="none" stroke="#7dc242" stroke-linecap="round" stroke-linejoin="round" stroke-miterlimit="10" stroke-width="2"/>
    </g>
  </g>
</svg>
