<svg xmlns="http://www.w3.org/2000/svg" width="58.477" height="65.087" viewBox="0 0 58.477 65.087">
  <g id="like_1_" data-name="like (1)" transform="translate(-26)">
    <g id="Group_29" data-name="Group 29" transform="translate(65.408)">
      <g id="Group_28" data-name="Group 28">
        <path id="Path_16" data-name="Path 16" d="M337.271,0A1.271,1.271,0,0,0,336,1.271V7.119a1.271,1.271,0,1,0,2.542,0V1.271A1.271,1.271,0,0,0,337.271,0Z" transform="translate(-336)" fill="#7dc242"/>
      </g>
    </g>
    <g id="Group_31" data-name="Group 31" transform="translate(36.17 39.663)">
      <g id="Group_30" data-name="Group 30">
        <path id="Path_17" data-name="Path 17" d="M107.271,312a1.271,1.271,0,1,0,1.271,1.271A1.272,1.272,0,0,0,107.271,312Z" transform="translate(-106 -312)" fill="#7dc242"/>
      </g>
    </g>
    <g id="Group_33" data-name="Group 33" transform="translate(26 13.475)">
      <g id="Group_32" data-name="Group 32">
        <path id="Path_18" data-name="Path 18" d="M84.477,129.645a5.091,5.091,0,0,0-5.085-5.085H69.9a31.924,31.924,0,0,0,1.949-12.136,14.479,14.479,0,0,0-.09-1.462,5.084,5.084,0,0,0-10.167.122v1.271c0,8.04-10.324,12.557-18.116,14.495a3.819,3.819,0,0,0-3.5-2.291H27.271A1.271,1.271,0,0,0,26,125.831v30.51a1.271,1.271,0,0,0,1.271,1.271H39.984a3.818,3.818,0,0,0,3.483-2.264q.968.248,1.8.466a41.232,41.232,0,0,0,12.83,1.8H71.765a5.082,5.082,0,0,0,4.224-7.912,5.1,5.1,0,0,0,2.552-7.63,5.083,5.083,0,0,0,2.533-7.624A5.087,5.087,0,0,0,84.477,129.645ZM41.255,153.8a1.273,1.273,0,0,1-1.271,1.271H28.542V127.1H39.984a1.273,1.273,0,0,1,1.271,1.271Zm38.137-21.611H73.036a1.271,1.271,0,0,0,0,2.542H76.85a2.542,2.542,0,0,1,0,5.085H70.493a1.271,1.271,0,0,0,0,2.542h3.814a2.542,2.542,0,1,1,0,5.085H67.951a1.271,1.271,0,0,0,0,2.542h3.814a2.542,2.542,0,1,1,0,5.085H58.094a38.783,38.783,0,0,1-12.187-1.715q-.961-.251-2.109-.546V129.394c9.2-2.191,20.34-7.54,20.34-17.038v-1.271a2.542,2.542,0,0,1,5.085,0v0c0,.552.69,7.333-2.075,13.475H62.866a1.271,1.271,0,0,0,0,2.542H79.392a2.542,2.542,0,1,1,0,5.085Z" transform="translate(-26 -106)" fill="#7dc242"/>
      </g>
    </g>
    <g id="Group_35" data-name="Group 35" transform="translate(36.17 44.748)">
      <g id="Group_34" data-name="Group 34">
        <path id="Path_19" data-name="Path 19" d="M107.271,352A1.271,1.271,0,0,0,106,353.271v10.17a1.271,1.271,0,0,0,2.542,0v-10.17A1.271,1.271,0,0,0,107.271,352Z" transform="translate(-106 -352)" fill="#7dc242"/>
      </g>
    </g>
    <g id="Group_37" data-name="Group 37" transform="translate(50.154 16.018)">
      <g id="Group_36" data-name="Group 36">
        <path id="Path_20" data-name="Path 20" d="M222.356,126h-5.085a1.271,1.271,0,0,0,0,2.542h5.085a1.271,1.271,0,0,0,0-2.542Z" transform="translate(-216 -126)" fill="#7dc242"/>
      </g>
    </g>
    <g id="Group_39" data-name="Group 39" transform="translate(75.578 16.018)">
      <g id="Group_38" data-name="Group 38">
        <path id="Path_21" data-name="Path 21" d="M422.356,126h-5.085a1.271,1.271,0,0,0,0,2.542h5.085a1.271,1.271,0,0,0,0-2.542Z" transform="translate(-416 -126)" fill="#7dc242"/>
      </g>
    </g>
    <g id="Group_41" data-name="Group 41" transform="translate(72.6 5.231)">
      <g id="Group_40" data-name="Group 40">
        <path id="Path_22" data-name="Path 22" d="M398.335,41.523a1.272,1.272,0,0,0-1.8,0l-3.595,3.595a1.271,1.271,0,1,0,1.8,1.8l3.595-3.595A1.271,1.271,0,0,0,398.335,41.523Z" transform="translate(-392.57 -41.151)" fill="#7dc242"/>
      </g>
    </g>
    <g id="Group_43" data-name="Group 43" transform="translate(54.622 5.231)">
      <g id="Group_42" data-name="Group 42">
        <path id="Path_23" data-name="Path 23" d="M256.915,45.118l-3.595-3.595a1.271,1.271,0,0,0-1.8,1.8l3.595,3.595a1.271,1.271,0,0,0,1.8-1.8Z" transform="translate(-251.15 -41.151)" fill="#7dc242"/>
      </g>
    </g>
  </g>
</svg>
