<svg xmlns="http://www.w3.org/2000/svg" width="65.432" height="65.441" viewBox="0 0 65.432 65.441">
  <g id="Group_70" data-name="Group 70" transform="translate(-988.993 -6490.651)">
    <path id="Path_24" data-name="Path 24" d="M305.185,327.7a2.24,2.24,0,0,1-2.717,1.56c-2.1-.515-7.086-1.715-7.086-1.715" transform="translate(731.309 6204.9)" fill="none" stroke="#7dc242" stroke-linecap="round" stroke-linejoin="round" stroke-miterlimit="10" stroke-width="2"/>
    <path id="Path_25" data-name="Path 25" d="M305.185,327.7a2.24,2.24,0,0,1-2.717,1.56c-2.1-.515-7.086-1.715-7.086-1.715" transform="translate(731.309 6204.9)" fill="none" stroke="#7dc242" stroke-linecap="round" stroke-linejoin="round" stroke-miterlimit="10" stroke-width="2"/>
    <path id="Path_26" data-name="Path 26" d="M28.448,316.412l-8.89-19.383a1.456,1.456,0,0,0-1.93-.716L8.35,300.568a1.456,1.456,0,0,0-.716,1.93l8.89,19.383a1.456,1.456,0,0,0,1.93.716l9.278-4.255A1.456,1.456,0,0,0,28.448,316.412Z" transform="translate(982.499 6232.265)" fill="none" stroke="#7dc242" stroke-linecap="round" stroke-linejoin="round" stroke-miterlimit="10" stroke-width="2"/>
    <path id="Path_27" data-name="Path 27" d="M121.046,313.515l-5.91-12.885a1.6,1.6,0,0,0-2.125-.789l-4.463,2.047,7.246,15.8,4.463-2.047A1.6,1.6,0,0,0,121.046,313.515Z" transform="translate(894.331 6229.198)" fill="none" stroke="#7dc242" stroke-linecap="round" stroke-linejoin="round" stroke-miterlimit="10" stroke-width="2"/>
    <g id="Group_46" data-name="Group 46" transform="translate(1016.722 6491.651)">
      <g id="Group_45" data-name="Group 45" transform="translate(10.618 6.135)">
        <path id="Path_28" data-name="Path 28" d="M307.828,74.684a5.226,5.226,0,0,0-3.371-1.492,3.161,3.161,0,0,0-3.343,2.859c0,1.45,1.823,2.611,4.13,3.219s2.795,1.8,2.795,3.071-1.124,2.91-3.757,2.91a4.561,4.561,0,0,1-3.812-1.915" transform="translate(-300.47 -70.954)" fill="none" stroke="#7dc242" stroke-linecap="round" stroke-linejoin="round" stroke-miterlimit="10" stroke-width="2"/>
        <g id="Group_44" data-name="Group 44" transform="translate(3.785)">
          <line id="Line_2" data-name="Line 2" y2="1.621" fill="none" stroke="#7dc242" stroke-linecap="round" stroke-linejoin="round" stroke-miterlimit="10" stroke-width="2"/>
          <line id="Line_3" data-name="Line 3" y2="1.621" transform="translate(0 14.914)" fill="none" stroke="#7dc242" stroke-linecap="round" stroke-linejoin="round" stroke-miterlimit="10" stroke-width="2"/>
        </g>
      </g>
      <circle id="Ellipse_12" data-name="Ellipse 12" cx="14.402" cy="14.402" r="14.402" transform="translate(0 0)" fill="none" stroke="#7dc242" stroke-linecap="round" stroke-linejoin="round" stroke-miterlimit="10" stroke-width="2"/>
    </g>
    <path id="Path_29" data-name="Path 29" d="M198.584,286.729l5.625-2.488c.478-.245,2.884-1.689,1.806-4.14-1.249-2.609-4.125-1.376-4.366-1.285l-12.208,3.612a2.743,2.743,0,0,0-1.7-3.466c-7.014-2.8-7.851-3.274-9.626-3.3h0c-5.488.018-6.482.063-9.209,1.284a24.324,24.324,0,0,0-4.051,2.3,8.894,8.894,0,0,1-2.128,1.1l4.915,10.716,3.28-1.245a11,11,0,0,1,7.331-.061l4.527,1.807a7.236,7.236,0,0,0,5.621-.337h0l6.1-2.7" transform="translate(847.054 6250.169)" fill="none" stroke="#7dc242" stroke-linecap="round" stroke-linejoin="round" stroke-miterlimit="10" stroke-width="2"/>
    <path id="Path_30" data-name="Path 30" d="M373.566,10.523A14.427,14.427,0,0,0,360.83,8.037a14.407,14.407,0,0,1,0,27.73,14.4,14.4,0,0,0,15.8-22" transform="translate(674.203 6484.151)" fill="none" stroke="#7dc242" stroke-linecap="round" stroke-linejoin="round" stroke-miterlimit="10" stroke-width="2"/>
  </g>
</svg>
